<svg width="21" height="22" viewBox="0 0 21 22" fill="none" xmlns="http://www.w3.org/2000/svg">
<g filter="url(#filter0_d_4164_243)">
<path d="M16.5306 8.53061L12.0306 13.0306C11.8897 13.1715 11.6986 13.2507 11.4994 13.2507C11.3001 13.2507 11.109 13.1715 10.9681 13.0306C10.8272 12.8897 10.7481 12.6986 10.7481 12.4994C10.7481 12.3001 10.8272 12.109 10.9681 11.9681L14.1875 8.74999H5C4.80109 8.74999 4.61032 8.67097 4.46967 8.53032C4.32902 8.38967 4.25 8.1989 4.25 7.99999C4.25 7.80108 4.32902 7.61031 4.46967 7.46966C4.61032 7.329 4.80109 7.24999 5 7.24999H14.1875L10.9694 4.02999C10.8285 3.88909 10.7493 3.69799 10.7493 3.49874C10.7493 3.29948 10.8285 3.10838 10.9694 2.96749C11.1103 2.82659 11.3014 2.74744 11.5006 2.74744C11.6999 2.74744 11.891 2.82659 12.0319 2.96749L16.5319 7.46749C16.6018 7.53726 16.6573 7.62016 16.6951 7.71142C16.7329 7.80269 16.7523 7.90052 16.7522 7.99931C16.752 8.09809 16.7324 8.19588 16.6944 8.28706C16.6564 8.37824 16.6007 8.46101 16.5306 8.53061Z" fill="#CBD5E1"/>
</g>
<defs>
<filter id="filter0_d_4164_243" x="-1.5" y="0" width="24" height="24" filterUnits="userSpaceOnUse" color-interpolation-filters="sRGB">
<feFlood flood-opacity="0" result="BackgroundImageFix"/>
<feColorMatrix in="SourceAlpha" type="matrix" values="0 0 0 0 0 0 0 0 0 0 0 0 0 0 0 0 0 0 127 0" result="hardAlpha"/>
<feOffset dy="4"/>
<feGaussianBlur stdDeviation="2"/>
<feComposite in2="hardAlpha" operator="out"/>
<feColorMatrix type="matrix" values="0 0 0 0 0 0 0 0 0 0 0 0 0 0 0 0 0 0 0.25 0"/>
<feBlend mode="normal" in2="BackgroundImageFix" result="effect1_dropShadow_4164_243"/>
<feBlend mode="normal" in="SourceGraphic" in2="effect1_dropShadow_4164_243" result="shape"/>
</filter>
</defs>
</svg>
